<svg width="22" height="22" viewBox="0 0 22 22" fill="none" xmlns="http://www.w3.org/2000/svg">
<path d="M7.84384 2.52084H4.29201C3.82226 2.52084 3.37175 2.70745 3.03958 3.03961C2.70742 3.37179 2.52081 3.82229 2.52081 4.29205V7.84387C2.5208 8.3145 2.70712 8.76598 3.03901 9.09964C3.37091 9.43334 3.8214 9.62198 4.29201 9.62446H7.84384C8.31609 9.62446 8.76901 9.43691 9.10294 9.10297C9.43688 8.76904 9.62443 8.31612 9.62443 7.84387V4.29205C9.62195 3.82143 9.4333 3.37094 9.09961 3.03904C8.76595 2.70715 8.31447 2.52083 7.84384 2.52084Z" stroke="white" stroke-width="1.5" stroke-linecap="round" stroke-linejoin="round"/>
<path d="M17.708 2.52084H14.1561C13.6855 2.52083 13.234 2.70715 12.9004 3.03904C12.5667 3.37094 12.3781 3.82143 12.3755 4.29205V7.84387C12.3755 8.31612 12.5631 8.76904 12.8971 9.10297C13.231 9.43691 13.6839 9.62446 14.1561 9.62446H17.708C18.1786 9.62198 18.6291 9.43334 18.961 9.09964C19.2929 8.76598 19.4792 8.3145 19.4792 7.84387V4.29205C19.4792 3.82229 19.2926 3.37179 18.9605 3.03961C18.6283 2.70745 18.1777 2.52084 17.708 2.52084Z" stroke="white" stroke-width="1.5" stroke-linecap="round" stroke-linejoin="round"/>
<path d="M17.708 12.3755H14.1561C13.6855 12.3755 13.234 12.5618 12.9004 12.8937C12.5667 13.2256 12.3781 13.6761 12.3755 14.1467V17.6985C12.3755 18.1708 12.5631 18.6237 12.8971 18.9576C13.231 19.2915 13.6839 19.4792 14.1561 19.4792H17.708C18.1786 19.4767 18.6291 19.288 18.961 18.9543C19.2929 18.6206 19.4792 18.1692 19.4792 17.6985V14.1467C19.4792 13.6769 19.2926 13.2264 18.9605 12.8943C18.6283 12.5621 18.1777 12.3755 17.708 12.3755Z" stroke="white" stroke-width="1.5" stroke-linecap="round" stroke-linejoin="round"/>
<path d="M7.84384 12.3755H4.29201C3.8214 12.378 3.37091 12.5667 3.03901 12.9003C2.70712 13.234 2.5208 13.6855 2.52081 14.1561V17.708C2.52081 18.1777 2.70742 18.6282 3.03958 18.9604C3.37175 19.2925 3.82226 19.4792 4.29201 19.4792H7.84384C8.31447 19.4792 8.76595 19.2929 9.09961 18.961C9.4333 18.629 9.62195 18.1786 9.62443 17.708V14.1561C9.62443 13.6839 9.43688 13.231 9.10294 12.897C8.76901 12.5631 8.31609 12.3755 7.84384 12.3755Z" stroke="white" stroke-width="1.5" stroke-linecap="round" stroke-linejoin="round"/>
</svg>
