<svg width="22" height="22" viewBox="0 0 22 22" fill="none" xmlns="http://www.w3.org/2000/svg">
<path d="M18.1047 14.8156V5.69396C18.1047 5.42516 17.9979 5.16737 17.8079 4.97729C17.6178 4.78722 17.36 4.68045 17.0912 4.68045H4.92904C4.79594 4.68045 4.66415 4.70667 4.54118 4.7576C4.41822 4.80853 4.30649 4.88319 4.21237 4.97729C4.11827 5.07141 4.0436 5.18314 3.99267 5.3061C3.94174 5.42907 3.91553 5.56086 3.91553 5.69396V14.8156" stroke="white" stroke-width="1.5" stroke-linecap="round" stroke-linejoin="round"/>
<path d="M2.29169 14.8156H19.7084V16.0676C19.7084 16.3996 19.5555 16.7181 19.2833 16.9528C19.011 17.1877 18.6419 17.3196 18.257 17.3196H3.74307C3.35815 17.3196 2.98898 17.1877 2.71679 16.9528C2.44461 16.7181 2.29169 16.3996 2.29169 16.0676V14.8156Z" stroke="white" stroke-width="1.5" stroke-linecap="round" stroke-linejoin="round"/>
</svg>
