<svg width="22" height="22" viewBox="0 0 22 22" fill="none" xmlns="http://www.w3.org/2000/svg">
<path d="M5.0147 5.51349V16.9853C5.0147 17.6468 5.27745 18.2811 5.74514 18.7488C6.21283 19.2165 6.84715 19.4792 7.50858 19.4792H14.4914C15.1529 19.4792 15.7872 19.2165 16.2549 18.7488C16.7226 18.2811 16.9853 17.6468 16.9853 16.9853V5.51349" stroke="#9F9F9F" stroke-width="1.5" stroke-linecap="round" stroke-linejoin="round"/>
<path d="M3.01962 5.51349H18.9804" stroke="#9F9F9F" stroke-width="1.5" stroke-linecap="round" stroke-linejoin="round"/>
<path d="M8.00735 5.51348V4.01715C8.00735 3.62031 8.165 3.23971 8.44561 2.95909C8.72622 2.67848 9.10683 2.52083 9.50363 2.52083H12.4963C12.8932 2.52083 13.2738 2.67848 13.5544 2.95909C13.835 3.23971 13.9926 3.62031 13.9926 4.01715V5.51348" stroke="#9F9F9F" stroke-width="1.5" stroke-linecap="round" stroke-linejoin="round"/>
<path d="M9.00489 15.5755V10.5907" stroke="#9F9F9F" stroke-width="1.5" stroke-linecap="round" stroke-linejoin="round"/>
<path d="M12.9951 15.5755V10.5907" stroke="#9F9F9F" stroke-width="1.5" stroke-linecap="round" stroke-linejoin="round"/>
</svg>
