<svg width="22" height="22" viewBox="0 0 22 22" fill="none" xmlns="http://www.w3.org/2000/svg">
<path d="M13.0041 2.5235V5.81962C13.0041 6.26671 13.1823 6.69548 13.4996 7.01161C13.817 7.32775 14.2474 7.50535 14.6962 7.50535H18.4774" stroke="white" stroke-width="1.5" stroke-linecap="round" stroke-linejoin="round"/>
<path d="M18.5625 7.85379V15.708C18.5442 16.2213 18.4245 16.7261 18.2103 17.1933C17.996 17.6605 17.6915 18.0811 17.3139 18.431C16.9364 18.7808 16.4933 19.0531 16.0101 19.2322C15.5269 19.4113 15.0129 19.4938 14.4976 19.475H7.54016C7.02179 19.499 6.5038 19.4202 6.01617 19.2434C5.52855 19.0666 5.081 18.7951 4.69942 18.4447C4.31784 18.0944 4.00983 17.6721 3.79321 17.2024C3.5766 16.7326 3.4557 16.2246 3.4375 15.708V6.29048C3.45579 5.77714 3.57548 5.27242 3.78972 4.80519C4.00395 4.33796 4.30855 3.91739 4.68607 3.56753C5.0636 3.21767 5.50666 2.94538 5.98989 2.76623C6.47313 2.58708 6.98708 2.5046 7.50235 2.52349H12.7394C13.5395 2.52081 14.3117 2.81643 14.9042 3.35223L17.6172 5.84786C17.9072 6.09747 18.1412 6.40506 18.3041 6.75064C18.4669 7.09622 18.555 7.47208 18.5625 7.85379Z" stroke="white" stroke-width="1.5" stroke-linecap="round" stroke-linejoin="round"/>
<path d="M7.00983 7.0098H10.0025" stroke="white" stroke-width="1.5" stroke-linecap="round" stroke-linejoin="round"/>
<path d="M7.00983 11H14.9902" stroke="white" stroke-width="1.5" stroke-linecap="round" stroke-linejoin="round"/>
<path d="M7.00983 14.9902H14.9902" stroke="white" stroke-width="1.5" stroke-linecap="round" stroke-linejoin="round"/>
</svg>
