<svg width="25" height="25" viewBox="0 0 25 25" fill="none" xmlns="http://www.w3.org/2000/svg">
<path d="M20.5735 16.8359V6.47041C20.5735 6.16496 20.4522 5.87201 20.2362 5.65602C20.0202 5.44003 19.7273 5.3187 19.4219 5.3187H5.60121C5.44996 5.3187 5.3002 5.34849 5.16046 5.40636C5.02073 5.46424 4.89376 5.54908 4.78681 5.65602C4.67987 5.76297 4.59503 5.88993 4.53716 6.02966C4.47928 6.1694 4.44949 6.31916 4.44949 6.47041V16.8359" stroke="#141315" stroke-width="1.5" stroke-linecap="round" stroke-linejoin="round"/>
<path d="M2.60417 16.8359H22.3958V18.2586C22.3958 18.6359 22.2221 18.9978 21.9128 19.2646C21.6034 19.5315 21.184 19.6814 20.7466 19.6814H4.25347C3.81605 19.6814 3.39654 19.5315 3.08724 19.2646C2.77794 18.9978 2.60417 18.6359 2.60417 18.2586V16.8359Z" stroke="#141315" stroke-width="1.5" stroke-linecap="round" stroke-linejoin="round"/>
</svg>
