<svg width="101" height="20" viewBox="0 0 101 20" fill="none" xmlns="http://www.w3.org/2000/svg">
<path d="M10.5 14.3916L13.9583 16.4833C14.5917 16.8666 15.3667 16.3 15.2 15.5833L14.2833 11.65L17.3417 8.99997C17.9 8.51663 17.6 7.59997 16.8667 7.54163L12.8417 7.19997L11.2667 3.4833C10.9833 2.8083 10.0167 2.8083 9.73333 3.4833L8.15833 7.19163L4.13333 7.5333C3.4 7.59163 3.1 8.5083 3.65833 8.99163L6.71667 11.6416L5.8 15.575C5.63333 16.2916 6.40833 16.8583 7.04167 16.475L10.5 14.3916Z" fill="#FFAD31"/>
<path d="M30.5 14.3916L33.9583 16.4833C34.5917 16.8666 35.3667 16.3 35.2 15.5833L34.2833 11.65L37.3417 8.99997C37.9 8.51663 37.6 7.59997 36.8667 7.54163L32.8417 7.19997L31.2667 3.4833C30.9833 2.8083 30.0167 2.8083 29.7333 3.4833L28.1583 7.19163L24.1333 7.5333C23.4 7.59163 23.1 8.5083 23.6583 8.99163L26.7167 11.6416L25.8 15.575C25.6333 16.2916 26.4083 16.8583 27.0417 16.475L30.5 14.3916Z" fill="#FFAD31"/>
<path d="M50.5 14.3916L53.9583 16.4833C54.5917 16.8666 55.3667 16.3 55.2 15.5833L54.2833 11.65L57.3417 8.99997C57.9 8.51663 57.6 7.59997 56.8667 7.54163L52.8417 7.19997L51.2667 3.4833C50.9833 2.8083 50.0167 2.8083 49.7333 3.4833L48.1583 7.19163L44.1333 7.5333C43.4 7.59163 43.1 8.5083 43.6583 8.99163L46.7167 11.6416L45.8 15.575C45.6333 16.2916 46.4083 16.8583 47.0417 16.475L50.5 14.3916Z" fill="#FFAD31"/>
<path d="M70.5 14.3916L73.9583 16.4833C74.5917 16.8666 75.3667 16.3 75.2 15.5833L74.2833 11.65L77.3417 8.99997C77.9 8.51663 77.6 7.59997 76.8667 7.54163L72.8417 7.19997L71.2667 3.4833C70.9833 2.8083 70.0167 2.8083 69.7333 3.4833L68.1583 7.19163L64.1333 7.5333C63.4 7.59163 63.1 8.5083 63.6583 8.99163L66.7167 11.6416L65.8 15.575C65.6333 16.2916 66.4083 16.8583 67.0417 16.475L70.5 14.3916Z" fill="#FFAD31"/>
<path d="M90.5 14.3916L93.9583 16.4833C94.5917 16.8666 95.3667 16.3 95.2 15.5833L94.2833 11.65L97.3417 8.99997C97.9 8.51663 97.6 7.59997 96.8667 7.54163L92.8417 7.19997L91.2667 3.4833C90.9833 2.8083 90.0167 2.8083 89.7333 3.4833L88.1583 7.19163L84.1333 7.5333C83.4 7.59163 83.1 8.5083 83.6583 8.99163L86.7167 11.6416L85.8 15.575C85.6333 16.2916 86.4083 16.8583 87.0417 16.475L90.5 14.3916Z" fill="#FFAD31"/>
</svg>
