<svg width="36" height="36" viewBox="0 0 36 36" fill="none" xmlns="http://www.w3.org/2000/svg">
<path d="M17.8646 9.79688C17.8646 14.3273 14.1919 18 9.66144 18H1.45831V9.79688C1.45831 5.26641 5.13097 1.59375 9.66144 1.59375C14.1919 1.59375 17.8646 5.26641 17.8646 9.79688Z" fill="white"/>
<path d="M17.8646 26.2031C17.8646 21.6727 21.5372 18 26.0677 18H34.2708V26.2031C34.2708 30.7336 30.5981 34.4063 26.0677 34.4063C21.5372 34.4063 17.8646 30.7336 17.8646 26.2031Z" fill="white"/>
<path d="M1.45831 26.2031C1.45831 30.7336 5.13097 34.4063 9.66144 34.4063H17.8646V26.2031C17.8646 21.6727 14.1919 18 9.66144 18C5.13097 18 1.45831 21.6727 1.45831 26.2031Z" fill="white"/>
<path d="M34.2708 9.79688C34.2708 5.26641 30.5981 1.59375 26.0677 1.59375H17.8646V9.79688C17.8646 14.3273 21.5372 18 26.0677 18C30.5981 18 34.2708 14.3273 34.2708 9.79688Z" fill="white"/>
</svg>
