<svg width="72" height="41" viewBox="0 0 72 41" fill="none" xmlns="http://www.w3.org/2000/svg">
<g clip-path="url(#clip0_2145_870)">
<path d="M71.9944 14.7262C72.0019 14.6706 72.0019 14.6144 71.9944 14.5588C72.0015 14.5135 72.0015 14.4673 71.9944 14.4219L71.461 10.5117C71.3841 10.0439 71.1783 9.60665 70.8668 9.24888L70.7753 9.14237L70.6078 8.975L61.374 1.0329L61.633 1.29157C61.4211 1.03839 61.1551 0.835885 60.8545 0.698963C60.5539 0.56204 60.2263 0.494183 59.896 0.500397H57.0923C56.6364 0.491378 56.1909 0.636114 55.8276 0.911202C55.4461 0.637771 54.9868 0.493775 54.5172 0.500397H51.7135C51.3458 0.49444 50.9831 0.585565 50.662 0.764571C50.3409 0.943577 50.0729 1.20411 49.8851 1.51978C49.5955 1.97065 49.4867 2.51388 49.5803 3.04126L49.9308 5.50604C49.6986 5.37462 49.4358 5.30643 49.1689 5.30827H35.5925C35.1054 5.31132 34.6295 5.45388 34.2211 5.71905C33.8262 5.96587 33.5092 6.31929 33.3069 6.73843L32.2555 5.84077C31.8417 5.45846 31.2955 5.25124 30.7318 5.26262H9.43008C8.94125 5.27151 8.46328 5.40787 8.04353 5.6582C7.46927 5.99382 7.04842 6.53953 6.87023 7.17967L0.10488 29.7736C-0.0215282 30.1459 -0.0339633 30.5474 0.0691674 30.9268C0.172298 31.3061 0.386324 31.6463 0.683903 31.9037C0.761443 31.9693 0.84286 32.0303 0.927705 32.0862C0.927705 32.0862 0.790548 31.9949 0.714361 31.9189L9.94819 39.8762C10.3388 40.2353 10.8495 40.436 11.3804 40.4391H32.8498C33.3401 40.4264 33.8184 40.2847 34.2364 40.0283C34.4728 39.8993 34.6843 39.7293 34.8611 39.5262L34.9373 39.4197L35.0592 39.2676L35.1506 39.1002L36.1563 39.9675C36.5413 40.3123 37.0409 40.502 37.5581 40.5H59.0731C59.5629 40.4837 60.0403 40.3423 60.4597 40.0892C60.6908 39.9523 60.9011 39.7832 61.0845 39.5871L61.1606 39.4806L61.2825 39.3285C61.3473 39.2322 61.4035 39.1304 61.4501 39.0241C61.4999 38.9319 61.5407 38.8351 61.572 38.7351L67.7431 18.1039V17.9213C67.7507 17.8505 67.7507 17.7791 67.7431 17.7083V17.5714C67.7505 17.526 67.7505 17.4798 67.7431 17.4344C67.75 17.3382 67.75 17.2416 67.7431 17.1453H69.724C69.8963 17.1611 70.0697 17.1611 70.242 17.1453H70.3792C70.4907 17.1121 70.5981 17.0661 70.6992 17.0084H70.8516L71.1258 16.7954L71.2477 16.7041L71.461 16.4302V16.339L71.6134 16.0803C71.6049 16.03 71.6049 15.9785 71.6134 15.9282C71.6053 15.9035 71.6053 15.8768 71.6134 15.8521C71.6458 15.7629 71.6713 15.6713 71.6896 15.5782C71.6825 15.5482 71.6825 15.5169 71.6896 15.4869C71.6822 15.4416 71.6822 15.3953 71.6896 15.35C71.6896 15.35 71.9944 14.7566 71.9944 14.7262Z" fill="black" fill-opacity="0.7"/>
<path d="M31.3565 6.99713C31.4374 7.07017 31.4939 7.16621 31.5184 7.27231C31.543 7.37841 31.5343 7.48946 31.4937 7.5905L24.7436 30.1692C24.6586 30.4157 24.4847 30.6218 24.256 30.7474C24.0699 30.8717 23.8545 30.9451 23.6312 30.9604H2.17717C1.99395 30.9516 1.82037 30.8758 1.68957 30.7474C1.61176 30.6755 1.55715 30.5821 1.53272 30.4792C1.50829 30.3762 1.51517 30.2683 1.55244 30.1692L8.31779 7.5905C8.39574 7.34088 8.56417 7.12928 8.79014 6.99713C8.97931 6.88175 9.19368 6.81388 9.41487 6.79933H30.8689C31.0507 6.80108 31.225 6.8718 31.3565 6.99713ZM20.1571 25.62L24.195 12.1397H12.889L8.86631 25.62H20.1571ZM51.8354 7.22534C51.9086 7.31028 52.0001 7.37764 52.103 7.42242C52.2059 7.4672 52.3175 7.48825 52.4297 7.48399H55.2181C55.3243 7.48503 55.4289 7.45903 55.5223 7.40845C55.6156 7.35787 55.6944 7.28437 55.7514 7.19491C55.8009 7.12503 55.8359 7.04592 55.8542 6.96228C55.8725 6.87865 55.8738 6.7922 55.858 6.70805L55.3095 2.69135C55.2573 2.50545 55.1635 2.33379 55.0353 2.18926C54.962 2.10432 54.8706 2.03696 54.7677 1.99218C54.6648 1.9474 54.5531 1.92636 54.441 1.93061H51.6526C51.5464 1.92958 51.4417 1.95558 51.3484 2.00616C51.2551 2.05674 51.1762 2.13023 51.1193 2.2197C51.0126 2.4327 50.9669 2.56963 51.0126 2.69135L51.5764 6.70805C51.6053 6.90363 51.6961 7.08486 51.8354 7.22534ZM60.6883 2.66092C60.636 2.47501 60.5422 2.30335 60.414 2.15883C60.3439 2.0742 60.2551 2.00686 60.1547 1.962C60.0543 1.91715 59.9449 1.89599 59.835 1.90018H57.0313C56.9269 1.89721 56.8236 1.92251 56.7324 1.9734C56.6412 2.02429 56.5655 2.09889 56.5133 2.18926C56.4119 2.32424 56.368 2.49379 56.3914 2.66092L56.9551 6.67761C56.9905 6.87113 57.0803 7.05057 57.2142 7.19491C57.2887 7.27819 57.3804 7.34442 57.483 7.38906C57.5856 7.4337 57.6965 7.4557 57.8084 7.45355H60.6121C60.7163 7.45493 60.8189 7.42896 60.9098 7.37822C61.0008 7.32748 61.0768 7.25379 61.1302 7.16449C61.1832 7.09642 61.2202 7.01734 61.2387 6.9331C61.2572 6.84886 61.2565 6.76157 61.2368 6.67761L60.6883 2.66092ZM49.3822 8.74682L49.1079 6.7689H35.5925C35.3803 6.78058 35.175 6.84889 34.9982 6.96669C34.886 7.0278 34.7883 7.1125 34.712 7.21494C34.6358 7.31739 34.5827 7.43513 34.5564 7.56007L33.4288 11.3333C33.3838 11.4276 33.3684 11.5334 33.3847 11.6366C33.4011 11.7398 33.4483 11.8356 33.5202 11.9115C33.6487 12.0321 33.8164 12.1024 33.9926 12.1093H50.4184L46.3805 25.5896H30.0004C29.7892 25.5944 29.5835 25.6576 29.4062 25.7721C29.1907 25.9088 29.0333 26.1201 28.9643 26.3655L27.8215 30.1388C27.7842 30.2356 27.7744 30.3408 27.7932 30.4428C27.8121 30.5449 27.8587 30.6397 27.9281 30.7169C28.0526 30.8456 28.2216 30.9218 28.4005 30.9299H49.9155C50.138 30.9108 50.3525 30.8377 50.5402 30.7169C50.7652 30.5907 50.934 30.3842 51.0126 30.1388L57.1989 9.50756H50.2355C50.125 9.50973 50.0153 9.48925 49.9131 9.44738C49.8109 9.40551 49.7184 9.34312 49.6413 9.26411C49.5153 9.12614 49.4262 8.9587 49.3822 8.77725V8.74682Z" fill="white"/>
</g>
<defs>
<clipPath id="clip0_2145_870">
<rect width="72" height="40" fill="white" transform="translate(0 0.5)"/>
</clipPath>
</defs>
</svg>
